<svg width="1440" height="1200" viewBox="0 0 1440 1200" fill="none" xmlns="http://www.w3.org/2000/svg">
    <defs>
        <linearGradient id="bgGradient" x1="720" y1="0" x2="720" y2="1200" gradientUnits="userSpaceOnUse">
            <stop offset="0" stop-color="#EFF6FF"/>
            <stop offset="1" stop-color="#F8FAFC"/>
        </linearGradient>
        <linearGradient id="primaryGradient" x1="0" y1="0" x2="1" y2="0">
            <stop offset="0%" stop-color="#5B86FF"/>
            <stop offset="100%" stop-color="#2D9CFF"/>
        </linearGradient>
        <filter id="shadowCard" x="-20" y="-20" width="140%" height="140%">
            <feDropShadow dx="0" dy="20" stdDeviation="30" flood-color="#000" flood-opacity="0.08"/>
        </filter>
        <filter id="shadowSoft" x="-10" y="-10" width="200" height="150">
             <feDropShadow dx="0" dy="4" stdDeviation="6" flood-color="#3B82F6" flood-opacity="0.08"/>
        </filter>
    </defs>

    <rect width="1440" height="1200" fill="url(#bgGradient)"/>

    <rect width="1440" height="80" fill="white" fill-opacity="0.8"/>
    <line x1="0" y1="80" x2="1440" y2="80" stroke="#FFFFFF" stroke-opacity="0.5"/>
    <g transform="translate(100, 24)">
        <rect width="32" height="32" rx="8" fill="url(#primaryGradient)"/>
        <text x="16" y="22" font-family="Arial" font-weight="900" font-size="18" fill="white" text-anchor="middle">⚡</text>
        <text x="44" y="24" font-family="PingFang SC" font-weight="800" font-size="20" fill="#1E293B">Jolin's Lab</text>
    </g>
    <g transform="translate(1200, 24)">
        <text x="-60" y="22" font-family="PingFang SC" font-size="16" fill="#64748B">管理后台</text>
        <circle cx="20" cy="16" r="18" fill="#E2E8F0" stroke="white" stroke-width="2"/>
    </g>

    <g transform="translate(720, 180)" text-anchor="middle">
        <text x="0" y="0" font-family="PingFang SC" font-weight="800" font-size="48" fill="#1E293B">
            Jolin's <tspan fill="url(#primaryGradient)">AI-Native Product Lab</tspan>
        </text>
        <text x="0" y="60" font-family="PingFang SC" font-size="18" fill="#64748B">
            <tspan font-weight="600" fill="#1E293B">以 AI 为笔，重构教育产品设计流。</tspan>
        </text>
        <text x="0" y="90" font-family="PingFang SC" font-size="18" fill="#64748B">在这里，我跳过 Axure 和 PPT，直接用代码构建可交互的高保真原型，让需求在立项前已被验证。</text>
    </g>

    <g transform="translate(170, 350)">
        <rect width="1100" height="180" rx="24" fill="white" fill-opacity="0.5" stroke="white" stroke-opacity="0.8"/>
        
        <g transform="translate(10, 10)">
             <marker id="arrowhead" markerWidth="10" markerHeight="7" refX="9" refY="3.5" orient="auto">
                 <polygon points="0 0, 10 3.5, 0 7" fill="#94A3B8" />
             </marker>
             <g transform="translate(20, 30)">
                 <rect width="160" height="110" fill="white" stroke="#E2E8F0" stroke-width="1.5" rx="16" filter="url(#shadowSoft)"/>
                 <path fill="#3B82F6" transform="translate(68, 25) scale(0.6)" d="M12,2A10,10 0 0,0 2,12C2,14.4 2.85,16.6 4.26,18.33L2.85,19.74L4.26,21.15L5.67,19.74C7.4,21.15 9.6,22 12,22A10,10 0 0,0 22,12C22,6.48 17.52,2 12,2M12,20C8.13,20 5,16.87 5,13C5,12.23 5.11,11.47 5.33,10.77C5.34,10.71 5.37,10.66 5.38,10.6C6.1,8.2 8.14,6.3 10.7,5.5C11.13,5.36 11.56,5.27 12,5.22V5C12,4.45 11.55,4 11,4C10.45,4 10,4.45 10,5H8C8,3.34 9.34,2 11,2C12.66,2 14,3.34 14,5H12V5.22C12.44,5.27 12.87,5.36 13.3,5.5C15.86,6.3 17.9,8.2 18.62,10.6C18.63,10.66 18.66,10.71 18.67,10.77C18.89,11.47 19,12.23 19,13C19,16.87 15.87,20 12,20M14,13H16C16,15.21 14.21,17 12,17V15C13.1,15 14,14.1 14,13M10,13H12V15C9.79,15 8,13.21 8,11H10C10,12.1 10.9,13 12,13Z" />
                 <text x="80" y="80" font-family="PingFang SC" font-weight="700" font-size="15" fill="#1E293B" text-anchor="middle">1. 灵感 Idea</text>
                 <text x="80" y="98" font-family="Arial" font-size="12" fill="#64748B" text-anchor="middle">(Inspiration)</text>
             </g>
             <line x1="190" y1="85" x2="230" y2="85" stroke="#94A3B8" stroke-width="2" marker-end="url(#arrowhead)" stroke-dasharray="6 4"/>
             <g transform="translate(240, 30)">
                 <rect width="160" height="110" fill="white" stroke="#E2E8F0" stroke-width="1.5" rx="16" filter="url(#shadowSoft)"/>
                 <path fill="#3B82F6" transform="translate(68, 25) scale(0.6)" d="M20,4H4A2,2 0 0,0 2,6V18A2,2 0 0,0 4,20H20A2,2 0 0,0 22,18V6A2,2 0 0,0 20,4M20,18H4V6H20V18M7.5,17L12.5,12L7.5,7V9.5L10,12L7.5,14.5V17M14,17H19V15H14V17Z" />
                 <text x="80" y="80" font-family="PingFang SC" font-weight="700" font-size="15" fill="#1E293B" text-anchor="middle">2. Vibe Coding</text>
                 <text x="80" y="98" font-family="Arial" font-size="12" fill="#64748B" text-anchor="middle">(HTML生成)</text>
             </g>
             <line x1="410" y1="85" x2="450" y2="85" stroke="#94A3B8" stroke-width="2" marker-end="url(#arrowhead)" stroke-dasharray="6 4"/>
             <g transform="translate(460, 30)">
                 <rect width="160" height="110" fill="white" stroke="#E2E8F0" stroke-width="1.5" rx="16" filter="url(#shadowSoft)"/>
                 <path fill="#3B82F6" transform="translate(68, 25) scale(0.6)" d="M12,2C6.48,2 2,6.48 2,12C2,17.52 6.48,22 12,22C17.52,22 22,17.52 22,12C22,6.48 17.52,2 12,2M12,20C7.59,20 4,16.41 4,12C4,7.59 7.59,4 12,4C16.41,4 20,7.59 20,12C20,16.41 16.41,20 12,20M16.59,12L10,5.41V18.59L16.59,12Z" />
                 <text x="80" y="80" font-family="PingFang SC" font-weight="700" font-size="15" fill="#1E293B" text-anchor="middle">3. 交互验证</text>
                 <text x="80" y="98" font-family="Arial" font-size="12" fill="#64748B" text-anchor="middle">(Interactive Demo)</text>
             </g>
             <line x1="630" y1="85" x2="670" y2="85" stroke="#94A3B8" stroke-width="2" marker-end="url(#arrowhead)" stroke-dasharray="6 4"/>
             <g transform="translate(680, 30)">
                 <rect width="160" height="110" fill="#F8FAFC" stroke="#3B82F6" stroke-width="2" rx="16" filter="url(#shadowSoft)"/>
                 <path fill="#3B82F6" transform="translate(68, 25) scale(0.6)" d="M14,2H6A2,2 0 0,0 4,4V20A2,2 0 0,0 6,22H18A2,2 0 0,0 20,20V8L14,2M18,20H6V4H13V9H18V20M11.24,16.38L8.58,13.73L10,12.31L11.24,13.55L14.76,10.03L16.17,11.44L11.24,16.38Z" />
                 <text x="80" y="80" font-family="PingFang SC" font-weight="700" font-size="15" fill="#3B82F6" text-anchor="middle">4. 生成 PRD</text>
                 <text x="80" y="98" font-family="Arial" font-size="12" fill="#64748B" text-anchor="middle">(Documentation)</text>
             </g>
             <line x1="850" y1="85" x2="890" y2="85" stroke="#94A3B8" stroke-width="2" marker-end="url(#arrowhead)" stroke-dasharray="6 4"/>
             <g transform="translate(900, 30)">
                 <rect width="160" height="110" fill="white" stroke="#E2E8F0" stroke-width="1.5" rx="16" filter="url(#shadowSoft)"/>
                 <path fill="#64748B" transform="translate(68, 25) scale(0.6)" d="M2.5,19H21.5V21H2.5V19M22.07,9.64C21.86,8.84 21.41,8.03 20.75,7.22C19.35,5.5 17.5,4.5 15.5,4.5C13.5,4.5 11.65,5.5 10.25,7.22C9.59,8.03 9.14,8.84 8.93,9.64L6.86,14.95L9,15.8L10.31,12.5C11.76,13.45 13.58,14 15.5,14C17.42,14 19.24,13.45 20.69,12.5L22,15.8L24.14,14.95L22.07,9.64M15.5,6.5C16.9,6.5 18.18,7.2 19.18,8.38C19.64,8.93 19.96,9.5 20.11,10.06L15.5,11.86L10.89,10.06C11.04,9.5 11.36,8.93 11.82,8.38C12.82,7.2 14.1,6.5 15.5,6.5Z" />
                 <text x="80" y="80" font-family="PingFang SC" font-weight="700" font-size="15" fill="#64748B" text-anchor="middle">5. 研发落地</text>
                 <text x="80" y="98" font-family="Arial" font-size="12" fill="#64748B" text-anchor="middle">(Development)</text>
             </g>
        </g>
    </g>

    <g transform="translate(285, 580)">
        <text x="0" y="0" font-family="PingFang SC" font-weight="600" font-size="17" fill="#2D9CFF">全部作品 (All)</text>
        <rect x="0" y="12" width="120" height="3" rx="1.5" fill="#2D9CFF"/>
        <text x="170" y="0" font-family="PingFang SC" font-weight="600" font-size="17" fill="#64748B">交互原型 (Prototypes)</text>
        <text x="390" y="0" font-family="PingFang SC" font-weight="600" font-size="17" fill="#64748B">业务组件 (Components)</text>
        <text x="620" y="0" font-family="PingFang SC" font-weight="600" font-size="17" fill="#64748B">创意实验 (Labs)</text>
    </g>

    <g transform="translate(120, 630)">
        <rect width="380" height="480" rx="16" fill="white" filter="url(#shadowCard)"/>
        <rect width="380" height="200" rx="16" fill="#F1F5F9"/> <g transform="translate(24, 224)">
            <text x="0" y="20" font-family="PingFang SC" font-weight="700" font-size="19" fill="#1E293B">小学英语超级管道工</text>
            <rect x="0" y="40" width="100" height="24" rx="6" fill="#EFF6FF"/><text x="10" y="56" font-size="12" fill="#3B82F6">⏱️ 2.5h 构建</text>
            <text x="0" y="100" font-size="14" fill="#64748B">【验证目标】通过 AI 快速实现...</text>
            <rect x="0" y="160" width="160" height="44" rx="10" stroke="#CBD5E1" fill="white"/>
            <text x="80" y="187" text-anchor="middle" font-size="14" fill="#475569">📄 查看 PRD</text>
            <rect x="172" y="160" width="160" height="44" rx="10" fill="url(#primaryGradient)"/>
            <text x="252" y="187" text-anchor="middle" font-size="14" fill="white">体验 Demo</text>
        </g>
        
        <rect x="404" y="0" width="380" height="480" rx="16" fill="white" filter="url(#shadowCard)"/>
        <rect x="404" y="0" width="380" height="200" rx="16" fill="#F1F5F9"/>
        <rect x="808" y="0" width="380" height="480" rx="16" fill="white" filter="url(#shadowCard)"/>
        <rect x="808" y="0" width="380" height="200" rx="16" fill="#F1F5F9"/>
    </g>

    <g transform="translate(720, 1150)" text-anchor="middle">
        <line x1="-720" y1="-30" x2="720" y2="-30" stroke="#E2E8F0"/>
        <text x="0" y="0" font-family="Arial" font-size="14" fill="#94A3B8">© 2026 Jolin's AI-Native Product Lab.</text>
        <text x="0" y="20" font-family="Arial" font-size="14" fill="#94A3B8">Built with Vibe Coding, Powered by Product Logic.</text>
    </g>
</svg>