<svg width="1440" height="1200" viewBox="0 0 1440 1200" fill="none" xmlns="http://www.w3.org/2000/svg">
    <defs>
        <linearGradient id="bgG" x1="720" y1="0" x2="720" y2="1200" gradientUnits="userSpaceOnUse"><stop offset="0" stop-color="#F8FAFC"/><stop offset="1" stop-color="#FFFFFF"/></linearGradient>
        <linearGradient id="primaryG" x1="0" y1="0" x2="1" y2="0"><stop offset="0%" stop-color="#6366F1"/><stop offset="100%" stop-color="#3B82F6"/></linearGradient>
        <filter id="shadowC" x="-20" y="-20" width="140%" height="140%"><feDropShadow dx="0" dy="4" stdDeviation="10" flood-color="#000" flood-opacity="0.05"/></filter>
    </defs>

    <rect width="1440" height="1200" fill="url(#bgG)"/>

    <rect width="1440" height="60" fill="white" fill-opacity="0.9"/>
    <line x1="0" y1="60" x2="1440" y2="60" stroke="#F1F5F9"/>
    <g transform="translate(100, 18)">
        <rect width="24" height="24" rx="6" fill="#3B82F6"/>
        <text x="12" y="17" font-family="Arial" font-weight="900" font-size="14" fill="white" text-anchor="middle">⚡</text>
        <text x="32" y="18" font-family="PingFang SC" font-weight="900" font-size="18" fill="#1E293B">Jolin's Lab</text>
    </g>
    <g transform="translate(1250, 20)">
        <text x="-50" y="15" font-family="PingFang SC" font-size="14" fill="#64748B">管理后台</text>
        <circle cx="10" cy="10" r="14" fill="#E2E8F0" stroke="white" stroke-width="2"/>
    </g>

    <g transform="translate(720, 130)" text-anchor="middle">
        <text x="0" y="0" font-family="PingFang SC" font-weight="800" font-size="40" fill="#1E293B">
            Jolin's <tspan fill="url(#primaryG)">AI-Native Product Lab</tspan>
        </text>
        <text x="0" y="40" font-family="PingFang SC" font-size="16" fill="#64748B">
            以 AI 为笔，重构教育产品设计流。跳过 Axure 和 PPT，直接用 Vibe Coding 构建原型。
        </text>
    </g>

    <g transform="translate(220, 210)">
        <rect width="1000" height="130" rx="16" fill="white" stroke="#F1F5F9" filter="url(#shadowC)"/>
        <g transform="translate(40, 20)">
            <rect width="140" height="90" rx="10" fill="white" stroke="#E2E8F0"/>
            <text x="70" y="50" text-anchor="middle" font-size="12" fill="#1E293B" font-family="PingFang SC" font-weight="bold">1. 灵感</text>
        </g>
        <path d="M190 65 H220" stroke="#CBD5E1" stroke-dasharray="4 3"/>
        <g transform="translate(230, 20)">
            <rect width="140" height="90" rx="10" fill="white" stroke="#E2E8F0"/>
            <text x="70" y="50" text-anchor="middle" font-size="12" fill="#1E293B" font-family="PingFang SC" font-weight="bold">2. Vibe Coding</text>
        </g>
        <path d="M380 65 H410" stroke="#CBD5E1" stroke-dasharray="4 3"/>
        <g transform="translate(420, 20)">
            <rect width="140" height="90" rx="10" fill="white" stroke="#E2E8F0"/>
            <text x="70" y="50" text-anchor="middle" font-size="12" fill="#1E293B" font-family="PingFang SC" font-weight="bold">3. MasterGo</text>
        </g>
        <path d="M570 65 H600" stroke="#CBD5E1" stroke-dasharray="4 3"/>
        <g transform="translate(610, 20)">
            <rect width="140" height="90" rx="10" fill="white" stroke="#E2E8F0"/>
            <text x="70" y="50" text-anchor="middle" font-size="12" fill="#1E293B" font-family="PingFang SC" font-weight="bold">4. 调整 Demo</text>
        </g>
        <path d="M760 65 H790" stroke="#CBD5E1" stroke-dasharray="4 3"/>
        <g transform="translate(800, 20)">
            <rect width="160" height="90" rx="10" fill="#F8FAFC" stroke="#3B82F6"/>
            <text x="80" y="50" text-anchor="middle" font-size="12" fill="#3B82F6" font-family="PingFang SC" font-weight="bold">5. 生成 PRD</text>
        </g>
    </g>

    <g transform="translate(400, 390)">
        <text x="0" y="0" font-family="PingFang SC" font-weight="bold" font-size="16" fill="#3B82F6">全部作品</text>
        <rect x="0" y="10" width="64" height="2" fill="#3B82F6"/>
        <text x="100" y="0" font-family="PingFang SC" font-size="16" fill="#94A3B8">交互原型</text>
        <text x="200" y="0" font-family="PingFang SC" font-size="16" fill="#94A3B8">业务组件</text>
        <line x1="0" y1="11" x2="640" y2="11" stroke="#E2E8F0"/>
    </g>

    <g transform="translate(170, 440)">
        <g>
            <rect width="500" height="170" rx="12" fill="white" stroke="#F1F5F9" filter="url(#shadowC)"/>
            <rect width="302" height="170" rx="0" fill="#E2E8F0"/> 
            <path d="M0 12a12 12 0 0 1 12-12h290v170h-290a12 12 0 0 1 -12 -12z" fill="#E2E8F0"/> <g transform="translate(320, 20)">
                <text x="0" y="10" font-family="PingFang SC" font-weight="bold" font-size="16" fill="#1E293B">小学英语超级管道工</text>
                
                <rect x="0" y="30" width="60" height="20" rx="4" fill="#EFF6FF"/>
                <text x="6" y="44" font-size="10" fill="#3B82F6">⏱️ 2.5h</text>
                <rect x="70" y="30" width="70" height="20" rx="4" fill="#EFF6FF"/>
                <text x="76" y="44" font-size="10" fill="#3B82F6">🤖 Claude</text>
                
                <text x="0" y="75" font-size="12" fill="#64748B" font-family="PingFang SC">
                    <tspan fill="#1E293B" font-weight="bold">【验证目标】</tspan>验证 6-8 岁儿
                </text>
                <text x="0" y="92" font-size="12" fill="#64748B" font-family="PingFang SC">童对名词动词分类的认知...</text>

                <rect x="0" y="115" width="75" height="28" rx="6" stroke="#CBD5E1" fill="white"/>
                <text x="37" y="133" text-anchor="middle" font-size="10" fill="#475569">📄 PRD</text>
                <rect x="85" y="115" width="75" height="28" rx="6" fill="url(#primaryG)"/>
                <text x="122" y="133" text-anchor="middle" font-size="10" fill="white">Demo →</text>
            </g>
        </g>

        <g transform="translate(530, 0)">
            <rect width="500" height="170" rx="12" fill="white" stroke="#F1F5F9" filter="url(#shadowC)"/>
            <rect width="302" height="170" fill="#E2E8F0"/>
            <path d="M0 12a12 12 0 0 1 12-12h290v170h-290a12 12 0 0 1 -12 -12z" fill="#E2E8F0"/>
            <g transform="translate(320, 20)">
                <text x="0" y="10" font-family="PingFang SC" font-weight="bold" font-size="16" fill="#1E293B">超级玛丽字母配对</text>
                <rect x="0" y="30" width="60" height="20" rx="4" fill="#EFF6FF"/>
                <text x="6" y="44" font-size="10" fill="#3B82F6">⏱️ 1.5h</text>
                <rect x="0" y="115" width="75" height="28" rx="6" stroke="#CBD5E1" fill="white"/>
                <text x="37" y="133" text-anchor="middle" font-size="10" fill="#475569">📄 PRD</text>
                <rect x="85" y="115" width="75" height="28" rx="6" fill="url(#primaryG)"/>
                <text x="122" y="133" text-anchor="middle" font-size="10" fill="white">Demo →</text>
            </g>
        </g>
        
        <g transform="translate(0, 200)">
             <rect width="500" height="170" rx="12" fill="white" stroke="#F1F5F9" filter="url(#shadowC)"/>
             <rect width="302" height="170" fill="#E2E8F0"/>
             <g transform="translate(320, 20)">
                <text x="0" y="10" font-family="PingFang SC" font-weight="bold" font-size="16" fill="#1E293B">AI 语音互动绘本</text>
             </g>
        </g>
        <g transform="translate(530, 200)">
             <rect width="500" height="170" rx="12" fill="white" stroke="#F1F5F9" filter="url(#shadowC)"/>
             <rect width="302" height="170" fill="#E2E8F0"/>
             <g transform="translate(320, 20)">
                <text x="0" y="10" font-family="PingFang SC" font-weight="bold" font-size="16" fill="#1E293B">AI 创意画板</text>
             </g>
        </g>
    </g>

    <g transform="translate(720, 950)" text-anchor="middle">
        <text x="0" y="0" font-family="Arial" font-size="12" fill="#94A3B8">© 2026 Jolin's AI Lab. Built with Vibe Coding.</text>
    </g>
</svg>